{
	"asset":{
		"generator":"Khronos glTF Blender I/O v3.5.30",
		"version":"2.0"
	},
	"extensionsUsed":[
		"KHR_materials_unlit"
	],
	"scene":0,
	"scenes":[
		{
			"name":"Scene",
			"nodes":[
				10
			]
		}
	],
	"nodes":[
		{
			"name":"Bone"
		},
		{
			"name":"Bone.001",
			"translation":[
				0.4657078683376312,
				-0.45502227544784546,
				0.1562991887331009
			]
		},
		{
			"name":"Bone.002",
			"translation":[
				0.6042223572731018,
				-0.48838552832603455,
				-0.3004581928253174
			]
		},
		{
			"name":"Bone.003",
			"rotation":[
				-2.980232594040899e-08,
				1.1920927533992653e-07,
				0,
				1
			],
			"scale":[
				1,
				0.9999999403953552,
				0.9999999403953552
			],
			"translation":[
				0.29471278190612793,
				-0.48116540908813477,
				-0.719711184501648
			]
		},
		{
			"name":"Bone.004",
			"translation":[
				-0.19052378833293915,
				-0.47770121693611145,
				-0.7293708920478821
			]
		},
		{
			"name":"Bone.005",
			"rotation":[
				-2.980232594040899e-08,
				1.1920927533992653e-07,
				0,
				1
			],
			"scale":[
				1,
				0.9999999403953552,
				0.9999999403953552
			],
			"translation":[
				-0.5033323764801025,
				-0.4798881411552429,
				-0.37157005071640015
			]
		},
		{
			"name":"Bone.006",
			"rotation":[
				-2.980232594040899e-08,
				1.1920927533992653e-07,
				0,
				1
			],
			"scale":[
				1,
				0.9999999403953552,
				0.9999999403953552
			],
			"translation":[
				-0.4614393413066864,
				-0.4853222370147705,
				0.052147381007671356
			]
		},
		{
			"name":"Bone.007",
			"translation":[
				-0.015983859077095985,
				-0.4882088601589203,
				0.3068029284477234
			]
		},
		{
			"name":"neutral_bone",
			"rotation":[
				-0.7071067690849304,
				0,
				0,
				0.7071067690849304
			]
		},
		{
			"mesh":0,
			"name":"Suzanne.005",
			"skin":0
		},
		{
			"children":[
				9,
				0,
				1,
				2,
				3,
				4,
				5,
				6,
				7,
				8
			],
			"name":"Armature"
		}
	],
	"animations":[
		{
			"channels":[
				{
					"sampler":0,
					"target":{
						"node":0,
						"path":"translation"
					}
				},
				{
					"sampler":1,
					"target":{
						"node":0,
						"path":"rotation"
					}
				},
				{
					"sampler":2,
					"target":{
						"node":0,
						"path":"scale"
					}
				},
				{
					"sampler":3,
					"target":{
						"node":1,
						"path":"translation"
					}
				},
				{
					"sampler":4,
					"target":{
						"node":1,
						"path":"rotation"
					}
				},
				{
					"sampler":5,
					"target":{
						"node":1,
						"path":"scale"
					}
				},
				{
					"sampler":6,
					"target":{
						"node":2,
						"path":"translation"
					}
				},
				{
					"sampler":7,
					"target":{
						"node":2,
						"path":"rotation"
					}
				},
				{
					"sampler":8,
					"target":{
						"node":2,
						"path":"scale"
					}
				},
				{
					"sampler":9,
					"target":{
						"node":3,
						"path":"translation"
					}
				},
				{
					"sampler":10,
					"target":{
						"node":3,
						"path":"rotation"
					}
				},
				{
					"sampler":11,
					"target":{
						"node":3,
						"path":"scale"
					}
				},
				{
					"sampler":12,
					"target":{
						"node":4,
						"path":"translation"
					}
				},
				{
					"sampler":13,
					"target":{
						"node":4,
						"path":"rotation"
					}
				},
				{
					"sampler":14,
					"target":{
						"node":4,
						"path":"scale"
					}
				},
				{
					"sampler":15,
					"target":{
						"node":5,
						"path":"translation"
					}
				},
				{
					"sampler":16,
					"target":{
						"node":5,
						"path":"rotation"
					}
				},
				{
					"sampler":17,
					"target":{
						"node":5,
						"path":"scale"
					}
				},
				{
					"sampler":18,
					"target":{
						"node":6,
						"path":"translation"
					}
				},
				{
					"sampler":19,
					"target":{
						"node":6,
						"path":"rotation"
					}
				},
				{
					"sampler":20,
					"target":{
						"node":6,
						"path":"scale"
					}
				},
				{
					"sampler":21,
					"target":{
						"node":7,
						"path":"translation"
					}
				},
				{
					"sampler":22,
					"target":{
						"node":7,
						"path":"rotation"
					}
				},
				{
					"sampler":23,
					"target":{
						"node":7,
						"path":"scale"
					}
				}
			],
			"name":"IdleBounce",
			"samplers":[
				{
					"input":13,
					"interpolation":"LINEAR",
					"output":14
				},
				{
					"input":13,
					"interpolation":"LINEAR",
					"output":15
				},
				{
					"input":13,
					"interpolation":"LINEAR",
					"output":16
				},
				{
					"input":13,
					"interpolation":"LINEAR",
					"output":17
				},
				{
					"input":13,
					"interpolation":"LINEAR",
					"output":18
				},
				{
					"input":13,
					"interpolation":"LINEAR",
					"output":19
				},
				{
					"input":13,
					"interpolation":"LINEAR",
					"output":20
				},
				{
					"input":13,
					"interpolation":"LINEAR",
					"output":21
				},
				{
					"input":13,
					"interpolation":"LINEAR",
					"output":22
				},
				{
					"input":13,
					"interpolation":"LINEAR",
					"output":23
				},
				{
					"input":13,
					"interpolation":"LINEAR",
					"output":24
				},
				{
					"input":13,
					"interpolation":"LINEAR",
					"output":25
				},
				{
					"input":13,
					"interpolation":"LINEAR",
					"output":26
				},
				{
					"input":13,
					"interpolation":"LINEAR",
					"output":27
				},
				{
					"input":13,
					"interpolation":"LINEAR",
					"output":28
				},
				{
					"input":13,
					"interpolation":"LINEAR",
					"output":29
				},
				{
					"input":13,
					"interpolation":"LINEAR",
					"output":30
				},
				{
					"input":13,
					"interpolation":"LINEAR",
					"output":31
				},
				{
					"input":13,
					"interpolation":"LINEAR",
					"output":32
				},
				{
					"input":13,
					"interpolation":"LINEAR",
					"output":33
				},
				{
					"input":13,
					"interpolation":"LINEAR",
					"output":34
				},
				{
					"input":13,
					"interpolation":"LINEAR",
					"output":35
				},
				{
					"input":13,
					"interpolation":"LINEAR",
					"output":36
				},
				{
					"input":13,
					"interpolation":"LINEAR",
					"output":37
				}
			]
		}
	],
	"materials":[
		{
			"doubleSided":true,
			"name":"Material",
			"pbrMetallicRoughness":{
				"baseColorFactor":[
					0.03429168462753296,
					0.8000000715255737,
					0.15365932881832123,
					1
				],
				"metallicFactor":0,
				"roughnessFactor":0.4000000059604645
			}
		},
		{
			"doubleSided":true,
			"extensions":{
				"KHR_materials_unlit":{}
			},
			"name":"0abbe546e479edc1eb62f5a8ccd66328",
			"pbrMetallicRoughness":{
				"baseColorTexture":{
					"index":0,
					"texCoord":0
				},
				"metallicFactor":0,
				"roughnessFactor":0.9
			}
		}
	],
	"meshes":[
		{
			"name":"Suzanne.013",
			"primitives":[
				{
					"attributes":{
						"POSITION":0,
						"TEXCOORD_0":1,
						"NORMAL":2,
						"JOINTS_0":3,
						"WEIGHTS_0":4
					},
					"indices":5,
					"material":0
				},
				{
					"attributes":{
						"POSITION":6,
						"TEXCOORD_0":7,
						"NORMAL":8,
						"JOINTS_0":9,
						"WEIGHTS_0":10
					},
					"indices":11,
					"material":1
				}
			]
		}
	],
	"textures":[
		{
			"sampler":0,
			"source":0
		}
	],
	"images":[
		{
			"bufferView":12,
			"mimeType":"image/jpeg",
			"name":"0abbe546e479edc1eb62f5a8ccd66328"
		}
	],
	"skins":[
		{
			"inverseBindMatrices":12,
			"joints":[
				0,
				1,
				2,
				3,
				4,
				5,
				6,
				7,
				8
			],
			"name":"Armature"
		}
	],
	"accessors":[
		{
			"bufferView":0,
			"componentType":5126,
			"count":3892,
			"max":[
				0.7598201632499695,
				-0.36022767424583435,
				0.463167667388916
			],
			"min":[
				-0.6600360870361328,
				-0.6461374163627625,
				-0.8851317167282104
			],
			"type":"VEC3"
		},
		{
			"bufferView":1,
			"componentType":5126,
			"count":3892,
			"type":"VEC2"
		},
		{
			"bufferView":2,
			"componentType":5126,
			"count":3892,
			"type":"VEC3"
		},
		{
			"bufferView":3,
			"componentType":5121,
			"count":3892,
			"type":"VEC4"
		},
		{
			"bufferView":4,
			"componentType":5126,
			"count":3892,
			"type":"VEC4"
		},
		{
			"bufferView":5,
			"componentType":5123,
			"count":20328,
			"type":"SCALAR"
		},
		{
			"bufferView":6,
			"componentType":5126,
			"count":4,
			"max":[
				0.2974641025066376,
				-0.5393885970115662,
				0.00709804892539978
			],
			"min":[
				-0.25247952342033386,
				-0.5393885970115662,
				-0.542845606803894
			],
			"type":"VEC3"
		},
		{
			"bufferView":7,
			"componentType":5126,
			"count":4,
			"type":"VEC2"
		},
		{
			"bufferView":8,
			"componentType":5126,
			"count":4,
			"type":"VEC3"
		},
		{
			"bufferView":9,
			"componentType":5121,
			"count":4,
			"type":"VEC4"
		},
		{
			"bufferView":10,
			"componentType":5126,
			"count":4,
			"type":"VEC4"
		},
		{
			"bufferView":11,
			"componentType":5123,
			"count":6,
			"type":"SCALAR"
		},
		{
			"bufferView":13,
			"componentType":5126,
			"count":9,
			"type":"MAT4"
		},
		{
			"bufferView":14,
			"componentType":5126,
			"count":81,
			"max":[
				3.3333333333333335
			],
			"min":[
				0
			],
			"type":"SCALAR"
		},
		{
			"bufferView":15,
			"componentType":5126,
			"count":81,
			"type":"VEC3"
		},
		{
			"bufferView":16,
			"componentType":5126,
			"count":81,
			"type":"VEC4"
		},
		{
			"bufferView":17,
			"componentType":5126,
			"count":81,
			"type":"VEC3"
		},
		{
			"bufferView":18,
			"componentType":5126,
			"count":81,
			"type":"VEC3"
		},
		{
			"bufferView":19,
			"componentType":5126,
			"count":81,
			"type":"VEC4"
		},
		{
			"bufferView":20,
			"componentType":5126,
			"count":81,
			"type":"VEC3"
		},
		{
			"bufferView":21,
			"componentType":5126,
			"count":81,
			"type":"VEC3"
		},
		{
			"bufferView":22,
			"componentType":5126,
			"count":81,
			"type":"VEC4"
		},
		{
			"bufferView":23,
			"componentType":5126,
			"count":81,
			"type":"VEC3"
		},
		{
			"bufferView":24,
			"componentType":5126,
			"count":81,
			"type":"VEC3"
		},
		{
			"bufferView":25,
			"componentType":5126,
			"count":81,
			"type":"VEC4"
		},
		{
			"bufferView":26,
			"componentType":5126,
			"count":81,
			"type":"VEC3"
		},
		{
			"bufferView":27,
			"componentType":5126,
			"count":81,
			"type":"VEC3"
		},
		{
			"bufferView":28,
			"componentType":5126,
			"count":81,
			"type":"VEC4"
		},
		{
			"bufferView":29,
			"componentType":5126,
			"count":81,
			"type":"VEC3"
		},
		{
			"bufferView":30,
			"componentType":5126,
			"count":81,
			"type":"VEC3"
		},
		{
			"bufferView":31,
			"componentType":5126,
			"count":81,
			"type":"VEC4"
		},
		{
			"bufferView":32,
			"componentType":5126,
			"count":81,
			"type":"VEC3"
		},
		{
			"bufferView":33,
			"componentType":5126,
			"count":81,
			"type":"VEC3"
		},
		{
			"bufferView":34,
			"componentType":5126,
			"count":81,
			"type":"VEC4"
		},
		{
			"bufferView":35,
			"componentType":5126,
			"count":81,
			"type":"VEC3"
		},
		{
			"bufferView":36,
			"componentType":5126,
			"count":81,
			"type":"VEC3"
		},
		{
			"bufferView":37,
			"componentType":5126,
			"count":81,
			"type":"VEC4"
		},
		{
			"bufferView":38,
			"componentType":5126,
			"count":81,
			"type":"VEC3"
		}
	],
	"bufferViews":[
		{
			"buffer":0,
			"byteLength":46704,
			"byteOffset":0,
			"target":34962
		},
		{
			"buffer":0,
			"byteLength":31136,
			"byteOffset":46704,
			"target":34962
		},
		{
			"buffer":0,
			"byteLength":46704,
			"byteOffset":77840,
			"target":34962
		},
		{
			"buffer":0,
			"byteLength":15568,
			"byteOffset":124544,
			"target":34962
		},
		{
			"buffer":0,
			"byteLength":62272,
			"byteOffset":140112,
			"target":34962
		},
		{
			"buffer":0,
			"byteLength":40656,
			"byteOffset":202384,
			"target":34963
		},
		{
			"buffer":0,
			"byteLength":48,
			"byteOffset":243040,
			"target":34962
		},
		{
			"buffer":0,
			"byteLength":32,
			"byteOffset":243088,
			"target":34962
		},
		{
			"buffer":0,
			"byteLength":48,
			"byteOffset":243120,
			"target":34962
		},
		{
			"buffer":0,
			"byteLength":16,
			"byteOffset":243168,
			"target":34962
		},
		{
			"buffer":0,
			"byteLength":64,
			"byteOffset":243184,
			"target":34962
		},
		{
			"buffer":0,
			"byteLength":12,
			"byteOffset":243248,
			"target":34963
		},
		{
			"buffer":0,
			"byteLength":51633,
			"byteOffset":243260
		},
		{
			"buffer":0,
			"byteLength":576,
			"byteOffset":294896
		},
		{
			"buffer":0,
			"byteLength":324,
			"byteOffset":295472
		},
		{
			"buffer":0,
			"byteLength":972,
			"byteOffset":295796
		},
		{
			"buffer":0,
			"byteLength":1296,
			"byteOffset":296768
		},
		{
			"buffer":0,
			"byteLength":972,
			"byteOffset":298064
		},
		{
			"buffer":0,
			"byteLength":972,
			"byteOffset":299036
		},
		{
			"buffer":0,
			"byteLength":1296,
			"byteOffset":300008
		},
		{
			"buffer":0,
			"byteLength":972,
			"byteOffset":301304
		},
		{
			"buffer":0,
			"byteLength":972,
			"byteOffset":302276
		},
		{
			"buffer":0,
			"byteLength":1296,
			"byteOffset":303248
		},
		{
			"buffer":0,
			"byteLength":972,
			"byteOffset":304544
		},
		{
			"buffer":0,
			"byteLength":972,
			"byteOffset":305516
		},
		{
			"buffer":0,
			"byteLength":1296,
			"byteOffset":306488
		},
		{
			"buffer":0,
			"byteLength":972,
			"byteOffset":307784
		},
		{
			"buffer":0,
			"byteLength":972,
			"byteOffset":308756
		},
		{
			"buffer":0,
			"byteLength":1296,
			"byteOffset":309728
		},
		{
			"buffer":0,
			"byteLength":972,
			"byteOffset":311024
		},
		{
			"buffer":0,
			"byteLength":972,
			"byteOffset":311996
		},
		{
			"buffer":0,
			"byteLength":1296,
			"byteOffset":312968
		},
		{
			"buffer":0,
			"byteLength":972,
			"byteOffset":314264
		},
		{
			"buffer":0,
			"byteLength":972,
			"byteOffset":315236
		},
		{
			"buffer":0,
			"byteLength":1296,
			"byteOffset":316208
		},
		{
			"buffer":0,
			"byteLength":972,
			"byteOffset":317504
		},
		{
			"buffer":0,
			"byteLength":972,
			"byteOffset":318476
		},
		{
			"buffer":0,
			"byteLength":1296,
			"byteOffset":319448
		},
		{
			"buffer":0,
			"byteLength":972,
			"byteOffset":320744
		}
	],
	"samplers":[
		{
			"magFilter":9729,
			"minFilter":9987
		}
	],
	"buffers":[
		{
			"byteLength":321716,
			"uri":"data:application/octet-stream;base64,"
		}
	]
}
